<?xml version="1.0" encoding="UTF-8"?>
<svg xmlns="http://www.w3.org/2000/svg" xmlns:xlink="http://www.w3.org/1999/xlink" width="990.383" height="359.593" viewBox="0 0 990.383 359.593">
<defs>
<clipPath id="clip-0">
<path clip-rule="nonzero" d="M 46.238281 25.804688 L 203 25.804688 L 203 305 L 46.238281 305 Z M 46.238281 25.804688 "/>
</clipPath>
<clipPath id="clip-1">
<path clip-rule="nonzero" d="M 620 104 L 943.527344 104 L 943.527344 333.378906 L 620 333.378906 Z M 620 104 "/>
</clipPath>
</defs>
<path fill-rule="nonzero" fill="rgb(43.763733%, 46.257019%, 48.078918%)" fill-opacity="1" d="M 256.261719 219.757812 C 257.925781 233.261719 264.132812 243 274.722656 249.570312 C 292.34375 260.511719 311.203125 261.472656 330.207031 253.746094 C 339.992188 249.765625 349.105469 244.144531 358.65625 239.550781 C 374.355469 232.015625 390.027344 239.65625 393.777344 256.660156 C 395.84375 265.988281 391.292969 273.125 385.152344 279.363281 C 376.039062 288.613281 364.765625 294.539062 352.726562 299 C 318.53125 311.667969 284.257812 313.941406 251.019531 296.589844 C 218.96875 279.855469 202.820312 252 198.257812 216.828125 C 194.5 187.957031 200.433594 161.160156 216.648438 137.050781 C 256.996094 77.058594 341.484375 78.425781 381.347656 139.449219 C 391.746094 155.367188 398.058594 172.738281 398.855469 191.726562 C 399.503906 206.929688 395.433594 215.683594 383.550781 218.96875 C 380.945312 219.683594 378.09375 219.71875 375.351562 219.726562 C 338.34375 219.769531 301.324219 219.757812 264.308594 219.757812 Z M 340.941406 180.847656 C 336.957031 153.101562 316.6875 137.976562 292 141.234375 C 271.859375 143.886719 253.742188 164.40625 256.132812 180.847656 Z M 340.941406 180.847656 "/>
<g clip-path="url(#clip-0)">
<path fill-rule="nonzero" fill="rgb(43.763733%, 46.257019%, 48.078918%)" fill-opacity="1" d="M 105.828125 249.464844 L 113.554688 249.464844 C 134.179688 249.464844 154.796875 249.359375 175.421875 249.519531 C 190.667969 249.632812 202.195312 260.503906 202.519531 275.839844 C 202.816406 289.898438 192.390625 302.757812 177.507812 303.667969 C 172.21875 304 166.921875 304.488281 161.632812 304.453125 C 132.105469 304.273438 102.554688 304.386719 73.054688 303.515625 C 57.082031 303.046875 46.605469 291.160156 46.390625 275.222656 C 46.21875 262.515625 46.34375 249.8125 46.34375 237.101562 C 46.328125 176.746094 46.539062 116.402344 46.238281 56.046875 C 46.121094 30.839844 69.746094 20.429688 88.871094 28.476562 C 100.347656 33.304688 105.105469 42.902344 105.71875 54.699219 C 106.128906 62.71875 105.820312 70.789062 105.820312 78.832031 C 105.828125 132.835938 105.828125 186.832031 105.828125 240.832031 Z M 105.828125 249.464844 "/>
</g>
<path fill-rule="nonzero" fill="rgb(43.763733%, 46.257019%, 48.078918%)" fill-opacity="1" d="M 491.785156 221.433594 C 499.449219 197.964844 507.136719 174.492188 514.808594 151.015625 C 518.667969 139.167969 522.429688 127.296875 526.355469 115.480469 C 532.492188 96.96875 545.128906 93.039062 560.566406 96.4375 C 576.683594 100 585.425781 114.140625 580.632812 130.355469 C 575.808594 146.722656 569.058594 162.523438 562.878906 178.476562 C 549.21875 213.761719 535.316406 248.953125 521.699219 284.257812 C 514.253906 303.585938 502.886719 309.628906 479.453125 304.828125 C 471.273438 303.152344 466.257812 297.175781 463.253906 289.867188 C 456.265625 272.855469 449.632812 255.710938 442.917969 238.589844 C 430.175781 206.128906 417.226562 173.742188 404.945312 141.097656 C 402.363281 134.226562 400.902344 126.304688 401.402344 119.03125 C 402.308594 105.828125 412.402344 96.792969 425.015625 95.699219 C 440.84375 94.308594 450.648438 99.875 455.40625 113.820312 C 462.085938 133.414062 468.289062 153.160156 474.695312 172.835938 C 479.980469 189.050781 485.25 205.265625 490.523438 221.488281 C 490.953125 221.46875 491.367188 221.445312 491.785156 221.433594 "/>
<g clip-path="url(#clip-1)">
<path fill-rule="nonzero" fill="rgb(100%, 100%, 100%)" fill-opacity="1" d="M 797.78125 265.445312 L 766.585938 265.445312 C 765.601562 270.074219 764.707031 274.566406 763.683594 279.03125 C 757.496094 305.902344 730.273438 336.390625 686.542969 332.757812 C 651.851562 329.867188 625.652344 302.367188 621.996094 271.632812 C 617.113281 230.726562 629.003906 194.523438 654.992188 163.117188 C 682.867188 129.445312 719.171875 110.191406 762.792969 105.828125 C 825.339844 99.582031 876.882812 120.421875 915.191406 170.554688 C 937.011719 199.101562 945.734375 232.066406 943.0625 267.8125 C 940.523438 301.582031 910.402344 330.527344 878.121094 333.121094 C 836.597656 336.460938 802.90625 307.289062 798.359375 268.667969 C 798.261719 267.835938 798.0625 267.015625 797.78125 265.445312 M 798.699219 248.332031 C 809.582031 196.96875 867.691406 170.789062 914.671875 203.011719 C 898.207031 161.578125 849.460938 122.613281 787.378906 120.722656 C 718.125 118.617188 667.519531 160.605469 649.820312 202.621094 C 652.386719 201.101562 654.289062 199.960938 656.203125 198.863281 C 673.105469 189.199219 691.105469 185.816406 710.105469 190.632812 C 738.277344 197.757812 756.023438 215.765625 763.988281 243.453125 C 764.777344 246.261719 765.101562 248.519531 769.019531 248.414062 C 778.777344 248.152344 788.546875 248.332031 798.699219 248.332031 M 693.839844 205.328125 C 662.332031 205.261719 637.890625 229.226562 637.738281 260.332031 C 637.585938 291.679688 662.261719 316.804688 693.277344 316.890625 C 724.085938 316.976562 749.730469 291.539062 749.742188 260.871094 C 749.765625 230.1875 724.804688 205.398438 693.839844 205.328125 M 870.558594 205.457031 C 839.566406 205.554688 814.066406 231.070312 814.339844 261.683594 C 814.640625 292.003906 840.214844 316.847656 870.875 317.039062 C 898.046875 317.210938 926.734375 295.96875 926.863281 261.339844 C 926.984375 227.246094 898.964844 204.863281 870.558594 205.457031 "/>
</g>
<path fill-rule="nonzero" fill="#a0c818" fill-opacity="1" d="M 798.695312 248.332031 C 788.546875 248.332031 778.773438 248.160156 769.019531 248.421875 C 765.101562 248.519531 764.777344 246.257812 763.976562 243.460938 C 756.019531 215.773438 738.28125 197.757812 710.109375 190.625 C 691.101562 185.816406 673.109375 189.199219 656.195312 198.863281 C 654.285156 199.960938 652.390625 201.097656 649.808594 202.621094 C 667.523438 160.605469 718.125 118.621094 787.375 120.722656 C 849.472656 122.605469 898.210938 161.578125 914.675781 203.011719 C 867.6875 170.789062 809.570312 196.96875 798.695312 248.332031 "/>
<path fill-rule="nonzero" fill="#a0c818" fill-opacity="1" d="M 693.839844 205.328125 C 724.800781 205.394531 749.769531 230.1875 749.746094 260.875 C 749.726562 291.539062 724.085938 316.976562 693.269531 316.890625 C 662.253906 316.804688 637.582031 291.679688 637.738281 260.332031 C 637.894531 229.226562 662.339844 205.261719 693.839844 205.328125 "/>
<path fill-rule="nonzero" fill="#a0c818" fill-opacity="1" d="M 870.566406 205.460938 C 898.972656 204.863281 926.988281 227.25 926.859375 261.339844 C 926.738281 295.964844 898.042969 317.210938 870.878906 317.039062 C 840.210938 316.84375 814.628906 292 814.347656 261.679688 C 814.0625 231.074219 839.566406 205.554688 870.566406 205.460938 "/>
</svg>
